D:\PredSim\limbproperties\Ratio75_uphill20\Ratio75_uphill20_IK_walking_1.5.mot
version=1
nRows=4
nColumns=124
inDegrees=yes
endheader
                time	         pelvis_tilt	         pelvis_list	     pelvis_rotation	           pelvis_tx	           pelvis_ty	           pelvis_tz	       hip_flexion_r	     hip_adduction_r	      hip_rotation_r	        knee_angle_r	       ankle_angle_r	    subtalar_angle_r	         mtp_angle_r	       hip_flexion_l	     hip_adduction_l	      hip_rotation_l	        knee_angle_l	       ankle_angle_l	    subtalar_angle_l	         mtp_angle_l	    lumbar_extension	      lumbar_bending	     lumbar_rotation	          arm_flex_r	           arm_add_r	           arm_rot_r	        elbow_flex_r	          arm_flex_l	           arm_add_l	           arm_rot_l	        elbow_flex_l	glut_med1_r/activation	glut_med2_r/activation	glut_med3_r/activation	glut_min1_r/activation	glut_min2_r/activation	glut_min3_r/activation	semimem_r/activation	semiten_r/activation	bifemlh_r/activation	bifemsh_r/activation	    sar_r/activation	add_long_r/activation	add_brev_r/activation	add_mag1_r/activation	add_mag2_r/activation	add_mag3_r/activation	    tfl_r/activation	   pect_r/activation	   grac_r/activation	glut_max1_r/activation	glut_max2_r/activation	glut_max3_r/activation	iliacus_r/activation	  psoas_r/activation	quad_fem_r/activation	    gem_r/activation	   peri_r/activation	rect_fem_r/activation	vas_med_r/activation	vas_int_r/activation	vas_lat_r/activation	med_gas_r/activation	lat_gas_r/activation	 soleus_r/activation	tib_post_r/activation	flex_dig_r/activation	flex_hal_r/activation	tib_ant_r/activation	per_brev_r/activation	per_long_r/activation	per_tert_r/activation	ext_dig_r/activation	ext_hal_r/activation	glut_med1_l/activation	glut_med2_l/activation	glut_med3_l/activation	glut_min1_l/activation	glut_min2_l/activation	glut_min3_l/activation	semimem_l/activation	semiten_l/activation	bifemlh_l/activation	bifemsh_l/activation	    sar_l/activation	add_long_l/activation	add_brev_l/activation	add_mag1_l/activation	add_mag2_l/activation	add_mag3_l/activation	    tfl_l/activation	   pect_l/activation	   grac_l/activation	glut_max1_l/activation	glut_max2_l/activation	glut_max3_l/activation	iliacus_l/activation	  psoas_l/activation	quad_fem_l/activation	    gem_l/activation	   peri_l/activation	rect_fem_l/activation	vas_med_l/activation	vas_int_l/activation	vas_lat_l/activation	med_gas_l/activation	lat_gas_l/activation	 soleus_l/activation	tib_post_l/activation	flex_dig_l/activation	flex_hal_l/activation	tib_ant_l/activation	per_brev_l/activation	per_long_l/activation	per_tert_l/activation	ext_dig_l/activation	ext_hal_l/activation	 ercspn_r/activation	 ercspn_l/activation	 intobl_r/activation	 intobl_l/activation	 extobl_r/activation	 extobl_l/activation	
          0.89965888	        -19.79311405	         -6.67808943	         -0.10501747	          1.33414287	          0.84288319	          0.00241035	         52.81918728	          8.09652365	         -7.52093916	        -39.73443109	         16.30920662	         -7.27642700	          0.20042053	         -5.33628419	         -6.00123750	          7.11296903	        -15.58469699	          5.73708483	         19.07946062	         21.24486511	         -6.99253468	          6.77394506	         -5.59993561	          6.47962276	        -14.94792387	         14.60165749	         46.69233399	          3.89391645	        -13.48727803	         18.84747902	         43.97456680	          0.20742775	          0.13533137	          0.15750640	          0.05917501	          0.05000007	          0.05000032	          0.43231109	          0.05000000	          0.76622029	          0.05878402	          0.13372241	          0.12798277	          0.51748567	          0.53353599	          0.43883687	          0.29645998	          0.06695910	          0.05000014	          0.05000000	          0.36551602	          0.28649939	          0.30612675	          0.10054298	          0.10054298	          0.70102805	          0.08411352	          0.43644492	          0.07178891	          0.19386071	          0.19762782	          0.15296362	          0.05000000	          0.05000000	          0.05152673	          0.05517544	          0.05000000	          0.05000001	          0.63942789	          0.36940551	          0.20737081	          0.43335061	          0.81366354	          0.44609600	          0.14678623	          0.09196937	          0.09012708	          0.33398494	          0.25749077	          0.17569378	          0.05000000	          0.05000000	          0.05000000	          0.05000000	          0.06611843	          0.32645198	          0.05289993	          0.05000003	          0.05000001	          0.05826047	          0.71201897	          0.06611848	          0.05000000	          0.06645404	          0.05000000	          0.05000000	          0.63962783	          0.90730028	          0.39130970	          0.09859789	          0.11180726	          0.53984419	          0.20217787	          0.20217787	          0.17581554	          0.66932936	          0.78070385	          0.20867756	          0.53201785	          0.61487413	          0.76192007	          0.05000000	          0.34889155	          0.38259992	          0.05000000	          0.05000000	          0.05000000	          0.20156780	          0.15827422	          0.05000000	          0.05000000	          0.05000000	          0.05000000	
          0.90865547	        -19.82671709	         -6.78481337	          0.22702946	          1.34971163	          0.84301981	          0.00292250	         52.07939385	          8.37632825	         -7.21834216	        -38.72918788	         16.05151645	         -7.24063991	          0.18818155	         -5.60808110	         -6.26903689	          7.16403348	        -16.20641995	          2.87908041	         19.46561835	         22.62659634	         -6.81067062	          6.90713644	         -5.70796158	          5.86117524	        -15.00831079	         14.30630697	         46.87392343	          3.66589245	        -13.50126766	         18.96435483	         44.38432502	          0.18038088	          0.11768528	          0.29450238	          0.05749715	          0.05749715	          0.05749715	          0.44862104	          0.05000000	          0.76169065	          0.05111907	          0.11628610	          0.11129488	          0.61142773	          0.58597305	          0.45366373	          0.29485478	          0.05822818	          0.05000006	          0.05000000	          0.42920639	          0.32500338	          0.32156262	          0.08743300	          0.08743300	          0.81311597	          0.07314584	          0.55287422	          0.06611845	          0.25388654	          0.25585235	          0.19936729	          0.05000000	          0.05000000	          0.05000000	          0.05000000	          0.05000000	          0.05000000	          0.68371488	          0.35224569	          0.20874002	          0.48489708	          0.88352316	          0.38792875	          0.12764651	          0.07997732	          0.07837525	          0.29043605	          0.22391609	          0.15278475	          0.05000000	          0.05000000	          0.05000000	          0.05000000	          0.05749713	          0.38882213	          0.12464760	          0.13678431	          0.05055533	          0.05114436	          0.73842023	          0.05749718	          0.05000000	          0.05780231	          0.09800168	          0.05473169	          0.59018659	          0.94205444	          0.41995781	          0.08574157	          0.09722851	          0.57093303	          0.17581553	          0.17581553	          0.15289063	          0.58205431	          0.71092038	          0.18146772	          0.50212246	          0.53893377	          0.66257196	          0.05000000	          0.37208770	          0.37246699	          0.05000000	          0.05000000	          0.05000000	          0.19573706	          0.17506773	          0.05000000	          0.05000000	          0.05000000	          0.05000000	
          0.91765206	        -19.85523511	         -6.85885528	          0.55574462	          1.36547194	          0.84302307	          0.00341104	         51.16595838	          8.67127548	         -6.81831957	        -38.38203520	         15.76010512	         -7.21224814	          0.18756410	         -5.66181770	         -6.45406980	          7.21427063	        -17.23206475	          0.00328768	         19.71288981	         23.86881719	         -6.59811576	          7.00403992	         -5.79693599	          5.21234925	        -15.05893631	         14.00640699	         47.01745622	          3.42162727	        -13.51099897	         19.08349131	         44.75368631	          0.18447582	          0.10234009	          0.25610169	          0.05000000	          0.05000000	          0.05000000	          0.43509659	          0.05000000	          0.70326650	          0.05000000	          0.10112335	          0.09678295	          0.54594928	          0.55936722	          0.42696915	          0.28288579	          0.05063570	          0.06611840	          0.05000000	          0.42304537	          0.29801108	          0.28315739	          0.07603246	          0.07603246	          0.88318088	          0.06360822	          0.67029377	          0.05749715	          0.28378353	          0.28967781	          0.22494215	          0.06611845	          0.06611845	          0.06611845	          0.05000000	          0.05000000	          0.06611845	          0.59456408	          0.35482960	          0.18674852	          0.42167048	          0.76831900	          0.33734603	          0.11100245	          0.06954895	          0.06815577	          0.25256557	          0.19471927	          0.13286287	          0.05000000	          0.05000000	          0.05000000	          0.05000000	          0.05000000	          0.33812292	          0.16690914	          0.25649276	          0.13295495	          0.11561871	          0.74688782	          0.05000003	          0.05000000	          0.06611845	          0.08522311	          0.11561872	          0.51323110	          0.95044735	          0.37951228	          0.07456159	          0.08455071	          0.56729121	          0.15289063	          0.15289063	          0.13295495	          0.50615920	          0.61822224	          0.15780582	          0.45889114	          0.46866124	          0.57617802	          0.05000000	          0.32528532	          0.34867212	          0.05000000	          0.05000000	          0.05000000	          0.17560594	          0.16344192	          0.05000000	          0.06437858	          0.05000000	          0.05000000	
          0.92664865	        -19.87986134	         -6.91512265	          0.88250298	          1.38135068	          0.84291907	          0.00386520	         50.06884225	          8.97288909	         -6.27446305	        -38.32001131	         15.70422034	         -7.19330620	          0.15315646	         -5.52405105	         -6.58092371	          7.25692669	        -18.59604475	         -2.84881056	         19.84335348	         24.78529024	         -6.36662144	          7.08086162	         -5.86724238	          4.55363656	        -15.10249464	         13.71676891	         47.11142659	          3.16942109	        -13.51295376	         19.19129355	         45.08688881	          0.30749178	          0.43888280	          0.53499746	          0.05749715	          0.13346922	          0.40616559	          0.40525851	          0.21910114	          0.62547566	          0.07603250	          0.08793770	          0.08416325	          0.47476198	          0.48643032	          0.37129588	          0.27751153	          0.05000000	          0.05749713	          0.27658670	          0.55202781	          0.38513305	          0.29661567	          0.06611845	          0.06611845	          0.92697768	          0.30761204	          0.79390431	          0.05000000	          0.30787557	          0.32464759	          0.25152984	          0.05749715	          0.05749715	          0.05749715	          0.05792566	          0.05749715	          0.05749715	          0.74656653	          0.30856273	          0.16239805	          0.62329464	          0.85517879	          0.58578239	          0.11562571	          0.06048034	          0.05926882	          0.21963310	          0.16932947	          0.11553865	          0.05000000	          0.05000000	          0.05000000	          0.05000000	          0.05000000	          0.31051888	          0.25266414	          0.22304821	          0.11561872	          0.10054298	          0.79517487	          0.05749717	          0.05000002	          0.05749715	          0.07411072	          0.10054299	          0.49437419	          0.94266610	          0.33002699	          0.06483937	          0.07352599	          0.49332109	          0.13295495	          0.13295495	          0.11561872	          0.44016020	          0.53761114	          0.13722923	          0.39905550	          0.40755167	          0.50104914	          0.05000000	          0.28287078	          0.30320814	          0.05000000	          0.05000000	          0.05000000	          0.15270837	          0.15766209	          0.07603246	          0.05598414	          0.05000000	          0.05749715	
